<svg xmlns="http://www.w3.org/2000/svg" width="180" height="40" viewBox="0 0 180 40"><rect x="1" y="1" width="178" height="38" rx="3" fill="#241C31" stroke="#B497F5" stroke-width="2"/><g fill="none" stroke="#C8CEDA" stroke-width="1" opacity=".7"><path d="M3 13V6l3-3h7M7 3l3 3-3 3-3-3z"/><path d="M3 13V6l3-3h7M7 3l3 3-3 3-3-3z" transform="translate(180 40) rotate(180)"/></g><path d="M22 1H158" stroke="#B497F5" stroke-width="1" opacity=".4"/><g transform="translate(13 9) scale(.9)" fill="none" stroke="#B497F5" stroke-width="1.65" stroke-linejoin="round" stroke-linecap="round"><path d="m4 14 9-10 7 7-9 10H8zM9 9l7 7M11 21h10"/></g><text x="44" y="25" font-family="Segoe UI, sans-serif" font-size="13" fill="#F0EAF8">Clear Frame</text></svg>