<svg xmlns="http://www.w3.org/2000/svg" width="180" height="40" viewBox="0 0 180 40"><rect x="1" y="1" width="178" height="38" rx="3" fill="#51406C" stroke="#B497F5" stroke-width="1"/><g fill="none" stroke="#C8CEDA" stroke-width="1" opacity=".7"><path d="M3 13V6l3-3h7M7 3l3 3-3 3-3-3z"/><path d="M3 13V6l3-3h7M7 3l3 3-3 3-3-3z" transform="translate(180 40) rotate(180)"/></g><path d="M22 1H158" stroke="#B497F5" stroke-width="1" opacity=".4"/><g transform="translate(13 9) scale(.9)" fill="none" stroke="#B497F5" stroke-width="1.65" stroke-linejoin="round" stroke-linecap="round"><path d="M8 3H3v5M16 3h5v5M21 16v5h-5M8 21H3v-5M3 12h18"/><circle cx="12" cy="12" r="3"/></g><text x="44" y="25" font-family="Segoe UI, sans-serif" font-size="13" fill="#F0EAF8">Auto Scan</text></svg>