<svg xmlns="http://www.w3.org/2000/svg" width="180" height="40" viewBox="0 0 180 40"><rect x="1" y="1" width="178" height="38" rx="4" fill="#234558" stroke="#55DCEB" stroke-width="1"/><g fill="none" stroke="#E8BA65" stroke-width="1" opacity=".7"><path d="M3 12V6l3-3h8M4 9h4V5M2 16h3"/><path d="M3 12V6l3-3h8M4 9h4V5M2 16h3" transform="translate(180 40) rotate(180)"/></g><path d="M22 1H158" stroke="#55DCEB" stroke-width="1" opacity=".4"/><g transform="translate(13 9) scale(.9)" fill="none" stroke="#55DCEB" stroke-width="1.65" stroke-linejoin="round" stroke-linecap="round"><rect x="4" y="5" width="13" height="14" rx="2"/><path d="M8 5v14M4 9h4M4 15h4M12 10l3 2-3 2zM20 7v6M17 10h6"/></g><text x="44" y="25" font-family="Segoe UI, sans-serif" font-size="13" fill="#E7F2F6">Add Video</text></svg>