<svg xmlns="http://www.w3.org/2000/svg" width="180" height="40" viewBox="0 0 180 40"><rect x="1" y="1" width="178" height="38" rx="2" fill="#70442B" stroke="#F49A58" stroke-width="1"/><g fill="none" stroke="#E8BC76" stroke-width="1" opacity=".7"><path d="M3 14 5 3l3 6 3-6 2 4M3 10l5-2"/><path d="M3 14 5 3l3 6 3-6 2 4M3 10l5-2" transform="translate(180 40) rotate(180)"/></g><path d="M22 1H158" stroke="#F49A58" stroke-width="1" opacity=".4"/><g transform="translate(13 9) scale(.9)" fill="none" stroke="#F49A58" stroke-width="1.65" stroke-linejoin="round" stroke-linecap="round"><path d="M12 3v12m-5-5 5 5 5-5M4 17v4h16v-4"/></g><text x="44" y="25" font-family="Segoe UI, sans-serif" font-size="13" fill="#F6EEE4">Download</text></svg>