<svg xmlns="http://www.w3.org/2000/svg" width="180" height="40" viewBox="0 0 180 40"><rect x="1" y="1" width="178" height="38" rx="6" fill="#193139" stroke="#365C5A" stroke-width="1"/><g fill="none" stroke="#C5AF76" stroke-width="1" opacity=".7"><path d="M3 13V7Q3 3 7 3h6M4 7l3-3 3 3-3 3z"/><path d="M3 13V7Q3 3 7 3h6M4 7l3-3 3 3-3 3z" transform="translate(180 40) rotate(180)"/></g><path d="M22 1H158" stroke="#66DFC0" stroke-width="1" opacity=".4"/><g transform="translate(13 9) scale(.9)" fill="none" stroke="#66DFC0" stroke-width="1.65" stroke-linejoin="round" stroke-linecap="round"><path d="M12 3v12m-5-5 5 5 5-5M4 17v4h16v-4"/></g><text x="44" y="25" font-family="Segoe UI, sans-serif" font-size="13" fill="#E5EEE9">Download</text></svg>