<svg xmlns="http://www.w3.org/2000/svg" width="180" height="40" viewBox="0 0 180 40"><rect x="1" y="1" width="178" height="38" rx="6" fill="#224C49" stroke="#66DFC0" stroke-width="1"/><g fill="none" stroke="#C5AF76" stroke-width="1" opacity=".7"><path d="M3 13V7Q3 3 7 3h6M4 7l3-3 3 3-3 3z"/><path d="M3 13V7Q3 3 7 3h6M4 7l3-3 3 3-3 3z" transform="translate(180 40) rotate(180)"/></g><path d="M22 1H158" stroke="#66DFC0" stroke-width="1" opacity=".4"/><g transform="translate(13 9) scale(.9)" fill="none" stroke="#66DFC0" stroke-width="1.65" stroke-linejoin="round" stroke-linecap="round"><path d="m9 15 6-6M8 17l-2 2a4 4 0 0 1-5-5l4-4a4 4 0 0 1 6 0M16 7l2-2a4 4 0 0 1 5 5l-4 4a4 4 0 0 1-6 0" transform="translate(1 0) scale(.91)"/></g><text x="44" y="25" font-family="Segoe UI, sans-serif" font-size="13" fill="#E5EEE9">Propagate</text></svg>