<svg xmlns="http://www.w3.org/2000/svg" width="180" height="40" viewBox="0 0 180 40"><rect x="1" y="1" width="178" height="38" rx="5" fill="#4D293A" stroke="#EF7489" stroke-width="1"/><g fill="none" stroke="#D5D1DA" stroke-width="1" opacity=".7"><path d="M3 13V3h11M6 10V6h5M3 16h3"/><path d="M3 13V3h11M6 10V6h5M3 16h3" transform="translate(180 40) rotate(180)"/></g><path d="M22 1H158" stroke="#EF7489" stroke-width="1" opacity=".4"/><g transform="translate(13 9) scale(.9)" fill="none" stroke="#EF7489" stroke-width="1.65" stroke-linejoin="round" stroke-linecap="round"><circle cx="12" cy="12" r="9"/><path d="M9 8a3 3 0 0 1 6 0c0 3-3 2-3 5M12 17h.01"/></g><text x="44" y="25" font-family="Segoe UI, sans-serif" font-size="13" fill="#F7EAF0">Help</text></svg>